# xmcd
#
# Track frame offsets:
#	150
#	40675
#	54943
#	76255
#	109974
#	150597
#	167054
#	201494
#	225423
#
# Disc length: 3680 seconds
#
# Revision: 1
# Processed by: cddbd v1.5.2PL0 Copyright (c) Steve Scherf et al.
# Submitted via: audiograbber 1.83.01
#
DISCID=660e5e09
DTITLE=Grateful Dead - 80-12-26 Oakland Auditorium Arena, Oakland CA
DYEAR=1900
DGENRE=
TTITLE0=Playing In The Band
TTITLE1=Drums
TTITLE2=Space
TTITLE3=Not Fade Away
TTITLE4=Black Peter
TTITLE5=Around and Around
TTITLE6=Good Lovin'
TTITLE7=US Blues
TTITLE8=Drums > Space
EXTD=
EXTT0=
EXTT1=
EXTT2=
EXTT3=
EXTT4=
EXTT5=
EXTT6=
EXTT7=
EXTT8=
PLAYORDER=
